<svg transform="scale(1)" id="_0321_Chatting" data-name="0321_Chatting" xmlns="http://www.w3.org/2000/svg" xmlns:xlink="http://www.w3.org/1999/xlink" version="1.1" viewBox="0 0 500 500" class="show_show__wrapper__graphic__5Waiy "><title>React</title><defs><style>
      .cls-1 {
        fill: #101720;
      }

      .cls-1, .cls-2, .cls-3, .cls-4, .cls-5, .cls-6, .cls-7, .cls-8, .cls-9 {
        stroke-width: 0px;
      }

      .cls-2 {
        fill: #008fb1;
      }

      .cls-10 {
        clip-path: url(#clippath);
      }

      .cls-3 {
        fill: #ff9c0f;
      }

      .cls-4 {
        fill: #008eb1;
      }

      .cls-5, .cls-11 {
        fill: #ff7e6d;
      }

      .cls-12 {
        clip-path: url(#clippath-1);
      }

      .cls-13 {
        clip-path: url(#clippath-3);
      }

      .cls-14 {
        clip-path: url(#clippath-2);
      }

      .cls-15, .cls-7 {
        fill: #fffffe;
      }

      .cls-6 {
        fill: #5c2f00;
      }

      .cls-8 {
        fill: #8fdce8;
      }

      .cls-9 {
        fill: #ff7e6e;
      }
    </style><clipPath id="clippath"><path class="cls-5" d="M293.6,111s-10.3-28.5-23.7-30.3c-13.4-1.8-14.3,29.7-7.9,51.9,0,0-21.8-7.1-23.5,18.7,0,0-29.9-2.4-27.3,26.5,0,0-24.2,4.4-24.9,21.7s7,27.8,7,27.8l15.6-18.1s7,16,16.9,13.2c9.9-2.9,13-14.3,6.5-28.9,0,0,12.2,12.4,20.8,3.4,8.6-9,1.7-23.8,1.7-23.8,0,0,11.1,9.1,21.4.7s-6.3-35.3-6.3-35.3l23.7-27.5Z"></path></clipPath><clipPath id="clippath-1"><path class="cls-7" d="M389.4,170.2s2.6-1.4,4.7,0c2,1.4,1,3.1,1,3.1,0,0-2.7,1.5-4.6.3s-1.1-3.3-1.1-3.3Z"></path></clipPath><clipPath id="clippath-2"><path class="cls-7" d="M386.5,168.4s.9-2-1-3c-1.9-1-3.5,0-3.5,0,0,0-1,2,.7,2.9,1.7.9,3.8,0,3.8,0Z"></path></clipPath><clipPath id="clippath-3"><path class="cls-5" d="M110.8,396l-64.7-110.1c11.4-3.8,22.3-7.5,32.3-10.8,2.5-.8,4.9-1.6,7.3-2.3,10.9-3.6,20.8-6.7,29-9.2,2.3-.7,4.6-1.3,6.7-2,6.8-2,12.1-3.4,15.7-4.1.9-.2,1.6-.3,2.2-.4,27-4,26.8,14.8,26.8,14.8,24,2.5,22.1,14.3,22.1,14.3,30.5,5.3,22.5,20.4,22.5,20.4,0,0,25-9.5,44-13.3,19-3.7,27.8,5.7,13.9,18.6-13.9,12.9-92.4,61.4-92.4,61.4,41.8,14.6,30,34.9,12.1,35.8-17.9.9-77.3-13.2-77.3-13.2Z"></path></clipPath></defs><g id="phone"><g><path class="cls-9" d="M383.9,290.6c-8.4,35.9-18.7,97.3-18.7,97.3h-159.9c.2-.7.2-21.3.1-39.3,0-14.3-.1-27-.1-27l17.9-10.1,156.2-87.7s13,30.9,4.6,66.8Z"></path><path class="cls-1" d="M365.2,388.2h-159.9c0,0-.2,0-.2-.1,0,0,0-.2,0-.3.2-.7.2-15.4.1-39.2,0-14.3-.1-27-.1-27,0-.1,0-.2.2-.3l174.1-97.8c0,0,.2,0,.2,0,0,0,.1,0,.2.2.1.3,12.9,31.4,4.6,67-8.3,35.5-18.6,96.7-18.7,97.3,0,.1-.1.2-.3.2ZM205.6,387.6h159.3c.7-4.3,10.7-62.7,18.7-97.1,7.8-33.5-3.1-62.9-4.5-66.3l-173.6,97.5c0,1.6,0,13.5.1,26.8,0,16.4.1,36,0,39Z"></path></g><path class="cls-2" d="M371.3,233.2c-5.4,19.7-28.5,56.7-28.5,56.7,0,0-1.4-10.8-5.4-20.8s14.9-20.2,14.9-20.2l19-15.7Z"></path><path class="cls-2" d="M263.3,353.2c-1.6,0-3.3-.2-5.1-.5-3.4-.6-7.5-2-11.8-3.5-7.6-2.6-16.3-5.6-24.9-5.6s-11.2,1.5-15.8,4.4c0-13-.1-24.6-.1-26.2l17.6-9.9,61.6,19c-.6,1.7-3.5,9.9-4.6,12.8-1,2.6-6.1,9.4-16.8,9.4Z"></path><g><path class="cls-1" d="M417.6,173.5c.3-7-1.4-17.4-3.9-21-.4-.5-4.4.8-11.1,3.7l-82.1-41c-6.5-3.2-14.4-1.7-19.1,3.8l-127.7,148.2c-10.2,5.1-16.3,8.1-16.3,8.1,0,0,.6,11.5,3.1,18.4,0,0,0,0,0,0,1.2,4,4,7.5,8.1,9.6l88.4,44.1c6.5,3.2,14.4,1.7,19.1-3.8l137.7-159.7c1.6-1.8,2.7-3.9,3.3-6.1,0,0,0,0,0,0,0,0,0,0,0-.1.4-1.4.5-2.8.5-4.2Z"></path><path class="cls-1" d="M264,349.4c-2.4,0-4.9-.6-7.2-1.7l-88.4-44.1c-4-2-6.9-5.4-8.2-9.7,0,0,0,0,0,0-2.5-6.9-3.1-18.4-3.1-18.5,0-.1,0-.2.2-.3,0,0,6-3,16.2-8.1l127.7-148.1c4.8-5.6,12.9-7.2,19.5-3.9l82,40.9c10.7-4.5,11.1-3.9,11.4-3.5,2.6,3.7,4.3,14.3,4,21.2,0,1.4-.2,2.9-.5,4.2h0c0,.2,0,.2,0,.2-.6,2.3-1.8,4.4-3.3,6.2l-137.7,159.7c-3.2,3.7-7.7,5.6-12.3,5.6ZM160.7,293.6s0,0,0,0c1.3,4.1,4.1,7.5,7.9,9.4l88.4,44.1c6.4,3.2,14.1,1.6,18.8-3.8l137.7-159.7c1.5-1.7,2.6-3.8,3.2-6,0,0,0,0,0-.1h0c.4-1.3.5-2.7.5-4.1h0c.3-6.7-1.3-17.2-3.9-20.8-.2,0-1.8,0-10.8,3.8,0,0-.2,0-.2,0l-82.1-41c-6.4-3.2-14.1-1.6-18.8,3.8l-127.7,148.2s0,0,0,0c-9.2,4.6-15,7.5-16.1,8.1,0,1.5.8,11.8,3.1,18.1ZM417,177.7h0s0,0,0,0h0Z"></path></g><g><path class="cls-7" d="M254.5,333.2l-88.4-44.1c-9.3-4.6-11.7-16.7-4.9-24.6l137.7-159.7c4.7-5.5,12.6-7.1,19.1-3.8l88.4,44.1c9.3,4.6,11.7,16.7,4.9,24.6l-137.7,159.7c-4.7,5.5-12.6,7.1-19.1,3.8Z"></path><path class="cls-1" d="M261.6,335.2c-2.4,0-4.9-.6-7.2-1.7l-88.4-44.1c-4.5-2.2-7.7-6.4-8.6-11.3s.3-9.9,3.6-13.8l137.7-159.7c4.8-5.6,12.9-7.2,19.5-3.9l88.4,44.1c4.5,2.2,7.7,6.4,8.6,11.3,1,4.9-.3,9.9-3.6,13.8l-137.7,159.7c-3.2,3.7-7.7,5.6-12.3,5.6ZM310.9,99.6c-4.4,0-8.8,1.9-11.8,5.4l-137.7,159.7c-3.2,3.7-4.4,8.5-3.5,13.3,1,4.8,4,8.7,8.3,10.9l88.4,44.1c6.4,3.2,14.1,1.6,18.8-3.8l137.7-159.7c3.2-3.7,4.4-8.5,3.5-13.3-1-4.8-4-8.7-8.3-10.9l-88.4-44.1c-2.2-1.1-4.6-1.6-7-1.6Z"></path></g><g><path class="cls-4" d="M261.6,327.4c-1.3,0-2.6-.3-3.8-.9l-88.4-44.1c-2.4-1.2-4-3.3-4.5-5.9-.5-2.6.2-5.2,1.9-7.2l137.7-159.7c1.6-1.9,3.9-2.9,6.4-2.9s2.6.3,3.8.9l88.4,44.1c2.4,1.2,4,3.3,4.5,5.9.5,2.6-.2,5.2-1.9,7.2l-137.7,159.7c-1.6,1.9-3.9,2.9-6.4,2.9Z"></path><path class="cls-1" d="M261.6,327.7c-1.4,0-2.7-.3-3.9-.9l-88.4-44.1c-2.4-1.2-4.1-3.4-4.7-6.1-.5-2.7.2-5.4,2-7.4l137.7-159.7c1.7-1.9,4.1-3,6.6-3s2.7.3,3.9.9l88.4,44.1c2.4,1.2,4.1,3.4,4.7,6.1.5,2.7-.2,5.4-2,7.4l-137.7,159.7c-1.7,1.9-4.1,3-6.6,3ZM310.9,107c-2.4,0-4.6,1-6.2,2.8l-137.7,159.7c-1.7,1.9-2.3,4.4-1.8,6.9.5,2.5,2.1,4.6,4.4,5.7l88.4,44.1c1.1.6,2.4.9,3.6.9,2.4,0,4.6-1,6.2-2.8l137.7-159.7c1.7-1.9,2.3-4.4,1.8-6.9-.5-2.5-2.1-4.6-4.4-5.7l-88.4-44.1c-1.1-.6-2.4-.9-3.6-.9Z"></path></g><g><polygon class="cls-7" points="266.7 312 175.8 270.5 196.6 247.9 287.5 289.4 266.7 312"></polygon><path class="cls-1" d="M266.7,312.3s0,0-.1,0l-90.9-41.5c0,0-.2-.1-.2-.2,0,0,0-.2,0-.3l20.8-22.6c0,0,.2-.1.3,0l90.9,41.5c0,0,.2.1.2.2,0,0,0,.2,0,.3l-20.8,22.6c0,0-.1,0-.2,0ZM176.3,270.4l90.3,41.2,20.4-22.1-90.3-41.2-20.4,22.1Z"></path></g><g><polygon class="cls-8" points="288.4 245.7 314.9 257.8 333.7 237.5 310.2 226.9 295.5 242.9 288.4 245.7"></polygon><path class="cls-1" d="M314.9,258.1s0,0-.1,0l-26.5-12.1c-.1,0-.2-.2-.2-.3,0-.1,0-.2.2-.3l7-2.8,14.7-16c0,0,.2-.1.3,0l23.4,10.7c0,0,.2.1.2.2,0,0,0,.2,0,.3l-18.7,20.3c0,0-.1,0-.2,0ZM289.2,245.7l25.7,11.7,18.3-19.8-22.8-10.4-14.6,15.9s0,0-.1,0l-6.4,2.6Z"></path></g><g><polygon class="cls-3" points="272.2 298.4 266.1 288.2 256.4 298.7 272.2 298.4"></polygon><path class="cls-1" d="M256.4,299c-.1,0-.2,0-.3-.2,0-.1,0-.2,0-.3l9.7-10.5c0,0,.2-.1.3,0,0,0,.2,0,.2.1l6.1,10.3c0,0,0,.2,0,.3,0,0-.2.2-.3.2l-15.8.3h0ZM266,288.7l-9,9.7,14.6-.2-5.6-9.5Z"></path></g><path class="cls-1" d="M272.2,298.7s0,0-.1,0l-11-5c-.2,0-.2-.2-.1-.4s.2-.2.4-.1l11,5c.2,0,.2.2.1.4,0,.1-.2.2-.3.2Z"></path><g><polygon class="cls-7" points="284.1 194.4 345.6 222.5 385.8 177.2 324.3 149.1 284.1 194.4"></polygon><path class="cls-1" d="M345.6,222.8s0,0-.1,0l-61.4-28.1c0,0-.1-.1-.2-.2,0,0,0-.2,0-.3l40.2-45.3c0,0,.2-.1.3,0l61.4,28.1c0,0,.1.1.2.2,0,0,0,.2,0,.3l-40.2,45.3c0,0-.1.1-.2.1ZM284.6,194.3l60.9,27.8,39.8-44.8-60.9-27.8-39.8,44.8Z"></path></g><g><polygon class="cls-8" points="305.4 165.2 278.8 153 297.6 132.7 321 143.4 306.2 159.5 305.4 165.2"></polygon><path class="cls-1" d="M305.4,165.5s0,0-.1,0l-26.5-12.1c0,0-.2-.1-.2-.2,0,0,0-.2,0-.3l18.7-20.3c0,0,.2-.1.3,0l23.4,10.7c0,0,.2.1.2.2,0,0,0,.2,0,.3l-14.7,16-.8,5.6c0,0,0,.2-.2.2,0,0,0,0-.1,0ZM279.3,152.9l25.8,11.8.8-5.3c0,0,0-.1,0-.2l14.5-15.7-22.8-10.4-18.3,19.8Z"></path></g><path class="cls-1" d="M359.9,173.9s0,0-.1,0l-36.2-16.5c-.2,0-.2-.2-.1-.4s.2-.2.4-.1l36.2,16.5c.2,0,.2.2.1.4,0,.1-.2.2-.3.2Z"></path><path class="cls-1" d="M366.1,187.6s0,0-.1,0l-48.1-21.9c-.2,0-.2-.2-.1-.4s.2-.2.4-.1l48.1,21.9c.2,0,.2.2.1.4,0,.1-.2.2-.3.2Z"></path><path class="cls-1" d="M358.8,195.6s0,0-.1,0l-48-21.9c-.2,0-.2-.2-.1-.4,0-.2.2-.2.4-.1l48,21.9c.2,0,.2.2.1.4,0,.1-.2.2-.3.2Z"></path><path class="cls-1" d="M351.5,203.6s0,0-.1,0l-48.1-21.9c-.2,0-.2-.2-.1-.4s.2-.2.4-.1l48.1,21.9c.2,0,.2.2.1.4,0,.1-.2.2-.3.2Z"></path><path class="cls-1" d="M344.2,211.6s0,0-.1,0l-48-21.9c-.2,0-.2-.2-.1-.4s.2-.2.4-.1l48,21.9c.2,0,.2.2.1.4,0,.1-.2.2-.3.2Z"></path><g><polygon class="cls-7" points="200.5 240.6 262 268.7 302.2 223.4 240.7 195.4 200.5 240.6"></polygon><path class="cls-1" d="M262,269s0,0-.1,0l-61.4-28.1c0,0-.1-.1-.2-.2,0,0,0-.2,0-.3l40.2-45.3c0,0,.2-.1.3,0l61.4,28.1c0,0,.1.1.2.2,0,0,0,.2,0,.3l-40.2,45.3c0,0-.1.1-.2.1ZM201,240.5l60.9,27.8,39.8-44.8-60.9-27.8-39.8,44.8Z"></path></g><path class="cls-1" d="M276.3,220.2s0,0-.1,0l-36.2-16.5c-.2,0-.2-.2-.1-.4s.2-.2.4-.1l36.2,16.5c.2,0,.2.2.1.4,0,.1-.2.2-.3.2Z"></path><path class="cls-1" d="M282.5,233.8s0,0-.1,0l-48.1-21.9c-.2,0-.2-.2-.1-.4s.2-.2.4-.1l48.1,21.9c.2,0,.2.2.1.4,0,.1-.2.2-.3.2Z"></path><path class="cls-1" d="M275.2,241.9s0,0-.1,0l-48.1-21.9c-.2,0-.2-.2-.1-.4,0-.2.2-.2.4-.1l48.1,21.9c.2,0,.2.2.1.4,0,.1-.2.2-.3.2Z"></path><path class="cls-1" d="M267.9,249.9s0,0-.1,0l-48.1-21.9c-.2,0-.2-.2-.1-.4s.2-.2.4-.1l48.1,21.9c.2,0,.2.2.1.4,0,.1-.2.2-.3.2Z"></path><path class="cls-1" d="M260.6,257.9s0,0-.1,0l-48.1-21.9c-.2,0-.2-.2-.1-.4,0-.2.2-.2.4-.1l48.1,21.9c.2,0,.2.2.1.4,0,.1-.2.2-.3.2Z"></path><g><path class="cls-8" d="M196.6,263.9c-.8.9-2.4,1.2-3.5.7s-1.3-1.6-.5-2.5,2.4-1.2,3.5-.7,1.3,1.6.5,2.5Z"></path><path class="cls-1" d="M194.3,265.2c-.4,0-.9,0-1.3-.3-.6-.3-1-.7-1.1-1.3-.1-.6,0-1.2.6-1.7.9-1,2.6-1.4,3.8-.8.6.3,1,.7,1.1,1.3.1.6,0,1.2-.6,1.7-.6.7-1.6,1.1-2.6,1.1ZM195,261.5c-.8,0-1.6.3-2.1.9-.3.4-.5.8-.4,1.2,0,.4.3.7.8.9,1,.4,2.4.1,3.1-.7h0c.3-.4.5-.8.4-1.2,0-.4-.3-.7-.8-.9-.3-.1-.7-.2-1-.2Z"></path></g><g><path class="cls-8" d="M205,267.7c-.8.9-2.4,1.2-3.5.7s-1.3-1.6-.5-2.5,2.4-1.2,3.5-.7,1.3,1.6.5,2.5Z"></path><path class="cls-1" d="M202.6,269c-.4,0-.9,0-1.3-.3-.6-.3-1-.7-1.1-1.3-.1-.6,0-1.2.6-1.7.9-1,2.6-1.4,3.8-.8.6.3,1,.7,1.1,1.3.1.6,0,1.2-.6,1.7h0c-.6.7-1.6,1.1-2.6,1.1ZM203.4,265.3c-.8,0-1.6.3-2.1.9-.3.4-.5.8-.4,1.2,0,.4.3.7.8.9,1,.4,2.4.1,3.1-.7.3-.4.5-.8.4-1.2,0-.4-.3-.7-.8-.9-.3-.1-.7-.2-1-.2ZM205,267.7h0,0Z"></path></g><g><path class="cls-8" d="M213.3,271.5c-.8.9-2.4,1.2-3.5.7s-1.3-1.6-.5-2.5,2.4-1.2,3.5-.7,1.3,1.6.5,2.5Z"></path><path class="cls-1" d="M211,272.8c-.4,0-.9,0-1.3-.3-.6-.3-1-.7-1.1-1.3-.1-.6,0-1.2.6-1.7.9-1,2.6-1.4,3.8-.8.6.3,1,.7,1.1,1.3.1.6,0,1.2-.6,1.7h0c-.6.7-1.6,1.1-2.6,1.1ZM211.7,269.1c-.8,0-1.6.3-2.1.9-.3.4-.5.8-.4,1.2,0,.4.3.7.8.9,1,.4,2.4.1,3.1-.7h0c.3-.4.5-.8.4-1.2,0-.4-.3-.7-.8-.9-.3-.1-.7-.2-1-.2ZM213.3,271.5h0,0Z"></path></g><g><path class="cls-9" d="M273.8,358.4s21.5-40.3,17.9-76.2c-3.6-35.9,8.8-47.5,21.1-47.5s28.7,36.7,30.7,61.8"></path><path class="cls-1" d="M273.8,358.7s0,0-.1,0c-.1,0-.2-.3-.1-.4.2-.4,21.5-40.6,17.9-76-2-19.5.7-33.9,7.7-41.6,3.6-4,8.4-6.1,13.8-6.1s12.9,7.9,19.5,21.7c6.1,12.8,10.5,28.3,11.5,40.4,0,.2-.1.3-.3.3-.2,0-.3-.1-.3-.3-2-24.9-18.3-61.5-30.4-61.5s-9.8,2.1-13.3,5.9c-6.9,7.6-9.5,21.8-7.5,41.2,3.6,35.6-17.8,75.9-18,76.3,0,.1-.2.2-.3.2Z"></path></g><g><path class="cls-11" d="M293.6,111s-10.3-28.5-23.7-30.3c-13.4-1.8-14.3,29.7-7.9,51.9,0,0-21.8-7.1-23.5,18.7,0,0-29.9-2.4-27.3,26.5,0,0-24.2,4.4-24.9,21.7s7,27.8,7,27.8l15.6-18.1s7,16,16.9,13.2c9.9-2.9,13-14.3,6.5-28.9,0,0,12.2,12.4,20.8,3.4,8.6-9,1.7-23.8,1.7-23.8,0,0,11.1,9.1,21.4.7s-6.3-35.3-6.3-35.3l23.7-27.5Z"></path><g class="cls-10"><path class="cls-2" d="M271.3,76.7c-7.9,8.9-3.4,28.8-1.4,40.9,2,12.1,4.8,22,4.8,22l-3.7-.3-2.8-2.7s-4.1-3.3-8.5-5.1c-4.4-1.8-13.1,4.6-7.8,18.7,5.3,14.1,19.2,23.3,26.7,22.9,7.5-.5-4.1,8.5-4.1,8.5l-10.5-.3-8.4-6.3s-.6-1.9-1.9-4.5-6.4-12.7-10.4-15.8-7.7-5.6-7.7-5.6c0,0-11.9.7-13.8,11s5.6,16.9,13.1,21.3c7.5,4.4,15.7,16.8,20,16.3,4.3-.5.8,4.9.8,4.9l-9,1.7-10.7-5.4-2.6-3.4-1.7-4s-5.8-10.2-12.8-12c-7-1.7-12.2-2.5-12.2-2.5l-.4-22.4,16.9-13.4,23.6-58.3,16.2-11.1,8.6,4.7Z"></path><path class="cls-2" d="M236,215.2c-5.4,4.6-11,4.4-16.3-7.3s-24.5-14.5-24-8.8-.5,21.3-7.2,25.8c-6.8,4.5,31.7,11.3,31.7,11.3l15.8-20.9Z"></path></g></g><path class="cls-1" d="M193.3,227.6h0c0,0-.2,0-.2-.1,0-.1-7.7-10.8-7.1-28,.6-16.4,22.2-21.4,24.8-21.9-.7-8.3,1.2-14.9,5.7-19.4,7.4-7.5,19.5-7.2,21.6-7.2.6-8.1,3.3-13.8,7.9-16.9,6-4,13.5-2.5,15.5-1.9-4.9-17.3-5.4-41,1.5-49,1.9-2.2,4.2-3.1,6.9-2.8,13.4,1.8,23.6,29.3,24,30.5,0,.1,0,.2,0,.3l-23.5,27.3c.7,1.1,4.4,7.4,6.9,14.4,3.9,10.5,3.6,17.6-.8,21.1-5.4,4.4-11.1,4-14.9,2.8-2.8-.8-4.9-2.1-6.1-2.9,1.4,3.5,5.2,15.5-2.2,23.2-2.1,2.2-4.6,3.4-7.5,3.4h0c-5.4,0-10.5-3.9-12.6-5.8,3.3,8.1,3.8,15.5,1.3,20.8-1.7,3.6-4.6,6.1-8.6,7.2-4.2,1.2-8.5-.7-12.5-5.6-2.4-2.9-4.1-6.2-4.6-7.3l-15.3,17.8c0,0-.1.1-.2.1ZM236.8,151.5c-3.8,0-13.6.7-19.9,7-4.4,4.5-6.3,11-5.5,19.2,0,.2,0,.3-.2.3-.2,0-24,4.5-24.6,21.4-.6,15.4,5.5,25.4,6.8,27.3l15.4-17.9c0,0,.2-.1.3-.1.1,0,.2,0,.2.2,0,.2,7,15.7,16.6,13,3.8-1.1,6.6-3.5,8.2-6.9,2.6-5.5,1.9-13.2-1.9-21.6,0-.1,0-.3.1-.4.1,0,.3,0,.4,0,0,0,6.6,6.6,13.2,6.6s0,0,0,0c2.7,0,5-1.1,7-3.2,8.3-8.8,1.7-23.4,1.6-23.5,0-.1,0-.3,0-.4.1,0,.3,0,.4,0,0,0,2.8,2.3,6.7,3.5,5.3,1.6,10.1.7,14.3-2.7,10-8.1-6.2-34.6-6.4-34.9,0-.1,0-.3,0-.4l23.5-27.3c-.4-1.1-2.9-7.6-6.8-14.3-3.8-6.7-9.9-14.8-16.7-15.7-2.5-.3-4.6.5-6.4,2.6-6.9,8-6.2,31.7-1.2,49,0,.1,0,.2,0,.3s-.2.1-.3,0c0,0-8.8-2.8-15.5,1.7-4.5,3-7.1,8.7-7.6,16.7,0,0,0,.2-.1.2,0,0-.1,0-.2,0,0,0-.6,0-1.5,0Z"></path><path class="cls-1" d="M232.3,193.7c-.1,0-.2,0-.3-.2-2.1-5.8-9.4-14.6-21-15.4-.2,0-.3-.2-.3-.3,0-.2.1-.3.3-.3,11.9.8,19.4,9.9,21.5,15.8,0,.2,0,.3-.2.4,0,0,0,0-.1,0Z"></path><path class="cls-1" d="M254.8,173.3c-.1,0-.2,0-.3-.2,0-.2-7.9-18.1-16.3-21.5-.2,0-.2-.2-.2-.4,0-.2.2-.2.4-.2,8.6,3.5,16.3,21.1,16.6,21.9,0,.2,0,.3-.2.4,0,0,0,0-.1,0Z"></path><path class="cls-1" d="M269.9,138.7c0,0-.2,0-.2-.1,0,0-2.7-3.5-7.9-5.7-.2,0-.2-.2-.2-.4s.2-.2.4-.2c5.3,2.3,8,5.8,8.1,5.9.1.1,0,.3,0,.4,0,0-.1,0-.2,0Z"></path></g><g id="character"><path class="cls-3" d="M465.1,178.5l-65.9,76.1c-.4.4-.8.8-1.2,1.2-.1.1-.3.3-.4.4-.1.1-.2.2-.3.3-1.4,1.2-2.9,2.2-4.6,3-4.3,2.1-9.1,2.7-12.6,1.1l-75.7-33.4c-2.7-1.2-4.2-3.3-4.4-5.9,0,0,0-.1,0-.2,0,0,0-.1,0-.2-.2-2.7,1-5.7,3.5-8.6l65.9-76.1c5-5.8,13.6-8.5,19.1-6l75.7,33.4c5.6,2.5,6,9.1,1,14.9Z"></path><g id="character-2" data-name="character"><path class="cls-8" d="M397.6,256.1c-.1.1-.2.2-.3.3-1.4,1.2-2.9,2.2-4.6,3-4.3,2.1-9.1,2.7-12.6,1.1l-68.5-30.2,9.7-11.2c-2.5.4-5.1.8-7.7,1,0,0-.2,0-.2,0-4.6.5-9.1.7-13.4.8,0,0,0-.1,0-.2-.2-2.7,1-5.7,3.5-8.6l16.1-18.6c0,0,.2,0,.2,0,.7,0,1.4-.2,2-.3,3.2-.4,6.3-.8,9.1-1.2.5,0,1-.1,1.5-.2.7,0,1.3-.2,1.9-.3.6,0,1.3-.2,1.9-.3.3,0,.6,0,.9-.1,2.2-.3,4.6-.7,7-1.1,1.7-.3,3.4-.5,5.2-.8.6,0,1.2-.2,1.8-.3,1-.1,1.9-.3,2.9-.4,1.3-.2,2.6-.4,3.9-.5,2.1-.2,4.1-.5,6.2-.6.6,0,1.1,0,1.7-.1.4,0,.9,0,1.3,0,.3,0,.7,0,1,0,.1,0,.3,0,.4,0,.4,0,.8,0,1.2,0,.5,0,1,0,1.5,0,1.7,0,3.4,0,5.1.1.3,0,.6,0,.9,0,0,0,.2,0,.3,0,0,0,.2,0,.2,0,0,0,.2,0,.2,0,.2,0,.3,0,.5,0,.3,0,.5,0,.8,0,0,0,0,0,0,0,.4,0,.7,0,1.1.1.4,0,.9.1,1.3.2.3,0,.7.1,1,.2.1,0,.2,0,.4,0,0,0,0,0,0,0,.2,0,.3,0,.5,0,.2,0,.5,0,.7.1.3,0,.5.1.8.2.4,0,.8.2,1.2.3,0,0,.8.2,2.1.8.2.1.5.2.8.4.4.2.8.4,1.3.7h0c0,0,.1,0,.2.1,0,0,.1,0,.2.1.1,0,.2.1.4.2.1,0,.3.2.4.2.4.2.7.5,1.1.8,0,0,.2.1.3.2.5.3.9.7,1.4,1.2,0,0,.2.2.2.2.4.3.7.7,1.1,1.1,0,0,.2.2.2.3,1.1,1.3,2.2,2.8,3,4.5.1.2.2.5.3.7.8,1.9,1.5,4,1.8,6.5,0,.5.1,1,.2,1.5,0,.5.1,1,.2,1.5,0,.5.1,1,.2,1.5,0,.5.1,1,.1,1.5,0,.5,0,1,.1,1.6.2,2.1.3,4.2.4,6.4,0,.5,0,1.1,0,1.6,0,.5,0,1.1,0,1.6,0,.5,0,1.1,0,1.6,0,1,0,2,0,3,0,.6,0,1.3,0,1.9,0,.4,0,.9,0,1.3,0,.9,0,1.7-.1,2.6,0,.3,0,.7,0,1,0,.8-.1,1.6-.2,2.4,0,.6-.1,1.3-.2,1.9-.1.9-.2,1.9-.4,2.8,0,.5-.1.9-.2,1.4,0,.5-.2.9-.2,1.4,0,.4-.1.8-.2,1.1-.3,1.4-.6,2.9-1,4.2-.1.5-.3,1-.4,1.4-.4,1.4-.9,2.8-1.4,4.1Z"></path><path class="cls-7" d="M397.6,256.1c-.1.1-.2.2-.3.3-1.4,1.2-2.9,2.2-4.6,3,.7-1.2,1.2-2.4,1.5-3.7,2.8-10.2,8.4-45.6-1.7-57.8-1.2-1.4-2.5-2.5-3.9-3.5,0,0-.1,0-.2-.1,0,0-.1,0-.2-.1-2.6-1.7-5.6-2.7-8.8-3.4-1.3-.2-2.7-.4-4.1-.5,0,0-.2,0-.2,0,0,0-.2,0-.2,0-9.6-.7-20.5,1.5-29,2.5-6.6.8-17.5,1.5-27.4,2l1.1-1.2c0,0,.2,0,.2,0,.7,0,1.4-.2,2-.3,3.2-.4,6.3-.8,9.1-1.2.5,0,1-.1,1.5-.2.7,0,1.3-.2,1.9-.3.6,0,1.3-.2,1.9-.3.3,0,.6,0,.9-.1,2.2-.3,4.6-.7,7-1.1,1.7-.3,3.4-.5,5.2-.8.6,0,1.2-.2,1.8-.3,1-.1,1.9-.3,2.9-.4,1.3-.2,2.6-.4,3.9-.5,2.1-.2,4.1-.5,6.2-.6.6,0,1.1,0,1.7-.1.4,0,.9,0,1.3,0,.3,0,.7,0,1,0,.1,0,.3,0,.4,0,.4,0,.8,0,1.2,0,.5,0,1,0,1.5,0,1.7,0,3.4,0,5.1.1.3,0,.6,0,.9,0,0,0,.2,0,.3,0,0,0,.2,0,.2,0,0,0,.2,0,.2,0,.2,0,.3,0,.5,0,.3,0,.5,0,.8,0,0,0,0,0,0,0,.4,0,.7,0,1.1.1.4,0,.9.1,1.3.2.3,0,.7.1,1,.2.1,0,.2,0,.4,0,0,0,0,0,0,0,.2,0,.3,0,.5,0,.2,0,.5,0,.7.1.3,0,.5.1.8.2.4,0,.8.2,1.2.3,0,0,.8.2,2.1.8.2.1.5.2.8.4.4.2.8.4,1.3.7h0c0,0,.1,0,.2.1,0,0,.1,0,.2.1.1,0,.2.1.4.2.1,0,.3.2.4.2.4.2.7.5,1.1.8,0,0,.2.1.3.2.5.3.9.7,1.4,1.2,0,0,.2.2.2.2.4.3.7.7,1.1,1.1,0,0,.2.2.2.3,1.1,1.3,2.2,2.8,3,4.5.1.2.2.5.3.7.8,1.9,1.5,4,1.8,6.5,0,.5.1,1,.2,1.5,0,.5.1,1,.2,1.5,0,.5.1,1,.2,1.5,0,.5.1,1,.1,1.5,0,.5,0,1,.1,1.6.2,2.1.3,4.2.4,6.4,0,.5,0,1.1,0,1.6,0,.5,0,1.1,0,1.6,0,.5,0,1.1,0,1.6,0,1,0,2,0,3,0,.6,0,1.3,0,1.9,0,.4,0,.9,0,1.3,0,.9,0,1.7-.1,2.6,0,.3,0,.7,0,1,0,.8-.1,1.6-.2,2.4,0,.6-.1,1.3-.2,1.9-.1.9-.2,1.9-.4,2.8,0,.5-.1.9-.2,1.4,0,.5-.2.9-.2,1.4,0,.4-.1.8-.2,1.1-.3,1.4-.6,2.9-1,4.2-.1.5-.3,1-.4,1.4-.4,1.4-.9,2.8-1.4,4.1Z"></path><path class="cls-5" d="M347,232.3l-8.5,9.9-18.4-8.1c0,0,0-.1.1-.2.2-.4.2-1,.3-2,.1-2.1,2.2-3.1,3.7-4,0,0,.2,0,.2-.1,0,0,.2-.1.2-.2,1.2-1,1.4-3.3,4.3-4.3.6-.2,1.3-.2,2.1,0,3.3.5,7.6,3.5,7.6,3.5,0,0,5.9-7.5,8.5-7.9,2.6-.5,2.9,2.3.7,5.5-2.2,3.2-3.1,6.2-.9,7.9,0,0,0,0,.1.1Z"></path><path class="cls-2" d="M321.3,234.6l-1.3-.6c0,0,0-.1.1-.2.2-.4.2-1,.3-2,.1-2.1,2.2-3.1,3.7-4,0,0,.2,0,.2-.1,0,0,.2-.1.2-.2,1.2-1,1.4-3.3,4.3-4.3.6-.2,1.3-.2,2.1,0-.1,0-.2.1-.4.2-1.5.7-2.8,1.8-3.7,3.4-.4.6-.7,1.1-1,1.4s-.2.3-.4.4c-.8.8-1.6,1.2-2.6,2.2-1.3,1.3-.5,2-1.6,3.8,0,0,0,0,0,0Z"></path><path class="cls-2" d="M344,235.7l-5.6,6.5-2.3-1c3-1.8,5.8-3.8,7.1-4.8.5-.4.8-.6.8-.6Z"></path><path class="cls-1" d="M376.7,241.8c0,.1-.3.2-.4.1-.2,0-16-6.9-21-9.3h-.2c-4.5-2.1-7.6-.4-8-.2l-8.5,9.8-.4-.2,8.5-9.9s0,0,0,0c0,0,0,0,0,0,0,0,0,0,.2-.1.8-.4,4.1-1.9,8.6.2,2.7,1.2,8.3,3.7,13,5.8h.2c1.2.6,2.3,1.1,3.3,1.5s.2,0,.2.1c2.5,1.1,4.2,1.8,4.2,1.8.1,0,.1.2,0,.3Z"></path><g><path class="cls-1" d="M383.3,218.9c-4.2,2.5-11.3,16.1-11.1,20.9l-3.3-1.5s4.9-14.5,14.4-19.4Z"></path><path class="cls-1" d="M372,240h0s-3.3-1.5-3.3-1.5c0,0,0-.1,0-.2,0,0,1.3-3.7,3.7-7.9,2.2-3.9,5.9-9.1,10.9-11.7.1,0,.3,0,.3,0,0,0,0,.2-.1.3-4,2.4-11.2,15.9-10.9,20.7,0,0,0,.2-.1.2,0,0-.2,0-.3,0ZM369.2,238.2l2.8,1.2c.1-4.6,5.3-14.8,9.3-19.1-7.5,5.3-11.6,16.5-12.1,17.9Z"></path></g><path class="cls-1" d="M321.5,219s0,0,0,0,0,0-.1,0c-2.5.4-4.9.7-7.4,1h-.4s0,0,0,0c-4.6.5-9.2.7-13.6.8,0,0,0,.2,0,.2,0,0,0,.1,0,.2,4.4,0,8.9-.4,13.5-.8,0,0,0,0,0,0h0c2.4-.3,4.8-.6,7.1-1l-9.4,10.8.4.2,9.7-11.2c0,0,0-.2,0-.2ZM401.1,206.8c-1.2-8.8-6.4-13.6-10.3-16,0,0-.1,0-.2-.1s-.1,0-.2-.1c-2.3-1.3-4-1.9-4.1-1.9-1-.3-2-.5-3.1-.7-1.7-.3-3.5-.5-5.2-.7,0,0-.2,0-.2,0,0,0-.2,0-.2,0-10.9-.8-22.8,1.1-32.9,2.7-2.7.4-5.2.8-7.6,1.2-4.6.6-10.7,1.5-17.4,2.3l-.4.5c6.8-.8,13-1.7,17.7-2.4,2.4-.3,4.9-.7,7.6-1.2,10-1.6,21.8-3.5,32.6-2.7,0,0,.2,0,.2,0,0,0,.2,0,.2,0,1.7.1,3.3.3,4.9.6,1.2.2,2.3.4,3.5.7,0,0,1.8.5,4.1,1.9h0c0,0,.1,0,.2.1,0,0,.1,0,.2.1,3.8,2.4,8.9,7.1,10,15.7,1.1,8,3.5,32.8-3.3,49.5.1,0,.2-.2.3-.3.1-.1.3-.2.4-.4,6.6-16.8,4.1-41.1,3.1-49Z"></path><g><polygon class="cls-1" points="321.2 219.2 332.2 206.5 313.6 220.2 321.2 219.2"></polygon><path class="cls-1" d="M313.4,220.4s0,0,0,0c0,0,0-.2.1-.2l18.6-13.7c.1,0,.2,0,.3,0,0,0,0,.2,0,.3l-10.9,12.6c0,0-.1.1-.2.1l-7.7,1s0,0-.1,0ZM330.9,207.7l-16.6,12.2,6.9-.9,9.8-11.3ZM321.2,219.2h0s0,0,0,0Z"></path></g><g><g><path class="cls-3" d="M419,179.5c-.2.2-.3.4-.5.6-1.5,1.6-3.1,3.1-4.8,4.4-3.4,2.7-7.5,4.8-11.8,5.8-2.5.5-5.1.6-6.8-.4-.3-.2-.6-.4-.9-.6-.3-.2-.7-.2-1.1-.3-2.4-.7-4.6-1.6-6.5-2.8l-11.1-6.1.9-.7c-1.5-.9-2.7-2.2-3.9-3.4-.3-.3-.6-.6-.9-.9-1.4-1.4-2.8-3-2.3-5.1,0-.3.2-.7.3-1,.1-.6,0-1.2,0-1.7-.2-2.6,1.2-5.4,3.4-7.7,1.5-1.5,3.4-2.9,5.5-3.7.5-.2,1.1-.4,1.6-.7.4-.3.7-.7,1-1.1,1-1.3,2.3-2.7,4-3.2.7-.2,1.4-.3,2.1-.5.7-.3,1.2-.7,1.8-1.1,1.9-1.3,4.1-2.5,6.3-2.6,1.5,0,2.8.4,4.2.4,2.1,0,4.6-.7,6.3,0,.9.3,1.5,1,2.4,1.2,1.1.3,2.4,0,3.6.1,2.1,0,3.8,1.1,4.4,2.7,0,.2.2.5.4.7.3.2.7.3,1,.4,1.7.5,3,1.6,3.4,3.1.1.5.2,1,.4,1.4.3.5.7.8,1.1,1.2.5.6.8,1.3.9,2.1,0,.5,0,1,.2,1.3s.6.6,1,.9c1.9,1.4,1.7,4.4-.3,6.5-.2.3-.5.5-.6.8,0,.3,0,.6.1,1,0,.8-.8,1.7-1.3,2.6-.5.9-.7,1.8-1.1,2.8-.5,1.3-1.5,2.5-2.5,3.6Z"></path><path class="cls-1" d="M418.8,179.4c-2,2.1-4,4.1-6.5,5.8-2.1,1.5-4.4,2.8-6.8,3.7s-5.1,1.6-7.4,1.5-2.3-.4-3.2-1-2-.8-3.1-1.1c-2.4-.8-4.3-2-6.4-3.1s-3.7-2.1-5.6-3.1-2.8-1.5-4.1-2.3v.3c.3-.2.6-.5.9-.7s.1-.3,0-.3c-1.6-1-2.8-2.2-4-3.5-1-1-2.1-2-2.7-3.3s-.5-1.3-.4-2,.2-.8.3-1.2.1-.8,0-1.2c0-.8-.1-1.5,0-2.4s.4-1.6.8-2.4c.8-1.6,2-3.3,3.6-4.6.8-.7,1.7-1.3,2.7-1.8s1.9-.8,2.8-1.2c.9-.5,1.4-1.3,2-2s1.3-1.5,2.2-2,1.9-.6,2.9-.9,1.6-.8,2.4-1.4c1.6-1.1,3.6-2.1,5.4-2.3,2-.2,3.5.4,5.4.4,1.8,0,3.9-.6,5.4-.1.9.3,1.5.9,2.3,1.2s1.6.2,2.5.2c1,0,2,0,2.8.2s1.5.7,2,1.2.4.5.6.9.2.7.5,1,.6.4,1,.5.8.3,1.2.4c.8.4,1.4.9,1.8,1.6.4.6.5,1.4.7,2.1s.9,1.2,1.4,1.7.7,1.4.7,2.2c0,.8.2,1.3.8,1.8s1.1.9,1.4,1.5c.5,1.2.4,2.7-.5,4.2s-1.3,1.3-1.4,2,.1.6.2.8-.2.8-.4,1.2c-.5.8-1,1.4-1.3,2.2s-.5,1.8-1.1,2.7-1.3,1.8-2,2.6.1.4.4.2c.7-.8,1.5-1.7,2-2.6s.8-1.8,1.1-2.7.4-.9.7-1.4.5-.7.8-1.1.4-.7.4-1-.1-.6-.2-.9c0-.5.5-.9.9-1.3s.5-.6.7-1c.4-.7.6-1.4.7-2.1.1-1.4-.4-2.7-1.4-3.4s-.8-.5-.9-.9,0-.8-.1-1.2c0-.8-.3-1.4-.7-2s-.6-.6-.8-.9-.5-.7-.6-1.2c-.2-.7-.4-1.4-.8-2-.4-.6-1-1.1-1.7-1.4s-2.1-.4-2.4-1.2c-.5-1.3-1.5-2.4-3.2-2.8-1.8-.5-4.2.2-5.7-.6s-1.4-.9-2.3-1.1-1.7,0-2.6,0-1.9.2-2.8.2-2-.2-3-.3c-1.7-.2-3.5,0-5.4,1s-1.7.9-2.5,1.5-.9.7-1.4.9-1.1.4-1.7.5c-1.9.4-3.4,1.6-4.6,3s-.6.8-1,1.2-1,.7-1.6.9c-1,.4-2,.9-2.9,1.4-1.8,1.1-3.3,2.6-4.4,4.2s-1.8,3.2-2,4.7,0,1.6,0,2.3-.4,1.7-.4,2.5c0,1.4.8,2.6,1.6,3.6s2.3,2.4,3.5,3.5,1.4,1.1,2.1,1.6v-.3c-.3.2-.6.5-.9.7s-.1.3,0,.3c3.2,1.7,6.3,3.5,9.5,5.2,2,1.1,3.9,2.3,6.2,3.1s2.5.6,3.5,1.3,1.6.9,2.7,1c2.2.3,4.7-.2,7.1-1,2.6-.9,5.2-2.2,7.6-3.8s5.1-4.1,7.2-6.4-.1-.4-.4-.2Z"></path></g><g><path class="cls-1" d="M419,179.5c-.2.2-.3.4-.5.6-1.5,1.6-3.1,3.1-4.8,4.4-3.4,2.7-7.5,4.8-11.8,5.8-2.5.5-5.1.6-6.8-.4-.3-.2-.6-.4-.9-.6-.3-.2-.7-.2-1.1-.3-2.4-.7-4.6-1.6-6.5-2.8l-11.1-6.1.9-.7c-1.5-.9-2.7-2.2-3.9-3.4-.3-.3-.6-.6-.9-.9-1.4-1.4-2.8-3-2.3-5.1,0-.3.2-.7.3-1,.1-.6,0-1.2,0-1.7-.2-2.6,1.2-5.4,3.4-7.7h0s-1,6.1,2.5,6.6c3.6.5,7.3,4.1,8.8,8.2,1.5,4.1,14.1,1.9,18.7,6.5,3.9,4,12.2-.8,16-1.4Z"></path><path class="cls-1" d="M389.4,187.9c-1.1-.5-2.1-1-3-1.6l-11.1-6.1c0,0,0,0,0-.1s0-.1.1-.2l.7-.5c-1.5-1-2.7-2.2-3.8-3.3l-.4-.4c-.2-.2-.3-.4-.5-.5-1.5-1.5-2.9-3.1-2.4-5.2,0-.1,0-.3.1-.4,0-.2.1-.4.2-.6,0-.4,0-.8,0-1.3,0-.1,0-.3,0-.4-.2-2.5,1.1-5.5,3.5-7.9.2-.2.5-.1.4,0,0,0-1,5.9,2.4,6.4,3.6.6,7.3,4,8.9,8.3.7,2,4.1,2.4,8,3,3.9.5,8.3,1.1,10.7,3.5,2.8,2.8,7.9,1.1,11.9-.3,1.5-.5,2.8-1,3.8-1.1,0,0,.2,0,.2,0,0,0,0,.2,0,.2,0,0-.2.2-.3.3,0,0-.2.2-.3.3-1.7,1.8-3.3,3.2-4.8,4.5-3.7,2.9-7.9,4.9-11.9,5.8-2.1.5-5,.8-7-.4-.1,0-.2-.2-.4-.2-.2-.1-.3-.2-.5-.3-.3-.1-.5-.2-.8-.3h-.2c-1.2-.4-2.4-.8-3.5-1.3ZM375.9,179.9l10.9,6c1.9,1.2,4.1,2.2,6.5,2.8h.2c.3.1.6.2.9.4.2.1.4.2.6.3.1,0,.2.2.4.2,1.8,1.1,4.6.8,6.6.4,3.9-.9,8.1-2.9,11.6-5.7,1.5-1.2,3.1-2.6,4.8-4.4,0,0,0,0,.1-.1-.9.2-2,.6-3.2,1-4,1.4-9.4,3.2-12.4.2-2.3-2.3-6.6-2.9-10.5-3.4-4-.6-7.5-1-8.3-3.2-1.5-4.2-5.2-7.6-8.7-8.1-3.1-.5-2.9-4.6-2.8-6.2-2,2.2-3,4.8-2.9,7,0,.1,0,.3,0,.4,0,.4,0,.9,0,1.4,0,.2-.1.4-.2.6,0,.1,0,.2-.1.4-.5,1.9.9,3.5,2.3,4.9.2.2.4.3.5.5l.4.4c1.1,1.1,2.4,2.4,3.9,3.3,0,0,0,0,0,.1,0,0,0,.1-.1.2l-.7.5Z"></path></g><path class="cls-6" d="M398.3,178.3c-.1-.4-.2-.7-.2-.7h.3c0,0,0,.2.2.6h-.3Z"></path><path class="cls-5" d="M375.7,200.2c-2.2,0-3.9-.4-4.4-1.5-1.7-3.5,2.8-7.1,2.8-7.1l7.3-8.5,12.6-3.1,1.9-.5-6.6,13.6c-2.8,4.3-9.2,6.9-13.7,7.1Z"></path><path class="cls-4" d="M375.7,200.2c-2.2,0-3.9-.4-4.4-1.5-1.7-3.5,2.8-7.1,2.8-7.1l7.3-8.5,12.6-3.1.4,1.1s-6.5,4.8-12,7.4c-4.2,2-6.2,8.2-6.8,11.8Z"></path><g><path class="cls-1" d="M393.9,183.7s-9.1,3.7-14.8,2l2.4-2.7,14.1-2.7-1.6,3.4Z"></path><path class="cls-1" d="M378.7,185.9l2.6-3,14.6-2.8-1.8,3.8h-.1c0,0-9.3,3.8-15,2.1h-.2ZM381.5,183.2l-2.1,2.4c5.2,1.4,13.1-1.6,14.3-2l1.4-3-13.6,2.6Z"></path></g><path class="cls-1" d="M372.3,199.9c-.6-.3-1.1-.7-1.3-1.1-1.7-3.5,2.9-7.3,2.9-7.4l7.3-8.4c0,0,.1-.1.2-.1l14.5-3.5c0,0,.2,0,.2,0,0,0,0,.1,0,.2l-6.6,13.6c-2.8,4.3-9.3,7.1-14,7.2-1.4,0-2.5-.1-3.3-.5ZM381.5,183.2l-7.3,8.4c-.2.2-4.4,3.6-2.8,6.9.5,1,2,1.5,4.3,1.4h0c4.5-.2,10.8-2.8,13.4-6.9l6.4-13.3-14,3.4Z"></path><path class="cls-5" d="M373.2,175.3c-.5,1.1-.8,2.1-1,2.9-1.3,6.4,4.7,8.1,13.2,6.4,4.8-.9,9.3-3.3,13.1-6.4.4,1.3,1.8,3.7,5.8.3,4.3-3.7,4.4-8.2.4-6.8-.1,0-.3,0-.4.2-1.2.7-2.3,1.5-3.3,2.3-.3.2-.6.5-.9.7-.6.3-1.3.3-1.7,0,.6-.6,1.2-1.3,1.8-1.9.8-.9,1.6-1.8,2.3-2.7-1.5-.8-2.6-2-3.3-3.4-1-1.8-1.3-4-1.4-6.1,0,0-.1,0-.2,0-6.1-.8-4.8-4.5-4.8-4.5l-2.3,1.4c-4.2,2.6-8,5.7-11.2,9.2-2.3,2.5-4.5,5.4-5.9,8.6Z"></path><g><path class="cls-15" d="M389.4,170.2s2.6-1.4,4.7,0c2,1.4,1,3.1,1,3.1,0,0-2.7,1.5-4.6.3s-1.1-3.3-1.1-3.3Z"></path><g class="cls-12"><path class="cls-1" d="M389.4,171.1c-.7.9-.6,1.8.3,2.2.9.3,2.1-.1,2.8-1,.7-.9.6-1.8-.3-2.2s-2.1.1-2.8,1Z"></path></g></g><path class="cls-1" d="M380.9,174.2s0,0,0,0c-.5-.4-.6-1-.3-1.6.3-.7,1-1.3,1.7-1.5,1-.4,3.3-1.6,5.1-3.5,0-.1.2-.2.4-.1.1,0,.1.2,0,.3-1.8,2-4.3,3.3-5.4,3.7-.5.2-1.1.7-1.3,1.2-.1.3-.3.9.2,1.3,0,0,0,.2,0,.3,0,0-.2.1-.3,0Z"></path><path class="cls-1" d="M383.7,178c-.3-.1-.5-.4-.7-.7,0,0,0-.2.2-.3.1,0,.3,0,.3,0,.2.5.7.7,1.3.6.7,0,1.4-.5,1.9-1.2,0-.1.2-.2.4-.1.1,0,.1.2,0,.3-.7.8-1.5,1.4-2.4,1.5-.4,0-.7,0-1-.1Z"></path><path class="cls-1" d="M396.9,170.9c0,0,0,0,0-.2.1-.8-.3-1.6-1.3-2.2-1-.6-2.3-.8-3.5-.4-.1,0-.3,0-.3-.1,0-.1.1-.2.2-.3,1.3-.4,2.8-.3,3.9.4,1,.6,1.6,1.6,1.4,2.5,0,.1-.1.2-.3.2,0,0,0,0-.1,0Z"></path><path class="cls-1" d="M388.7,165.9s0,0,0-.1c0,0-.2-2.4-2.7-2-.1,0-.2,0-.2-.2,0-.1.2-.2.3-.2,3-.4,3.1,2.3,3.1,2.3,0,.1-.1.2-.2.3,0,0-.1,0-.2,0Z"></path><path class="cls-1" d="M394,170.2s1,.6,1.2,1.6c.2,1,0,1.8.1,2l-.7.2s.6-2.7-.7-3.8Z"></path><g><path class="cls-15" d="M386.5,168.4s.9-2-1-3c-1.9-1-3.5,0-3.5,0,0,0-1,2,.7,2.9,1.7.9,3.8,0,3.8,0Z"></path><g class="cls-14"><path class="cls-1" d="M385,168c-.8.6-1.8.8-2.4.3s-.4-1.4.4-2,1.8-.8,2.4-.3c.5.5.4,1.4-.4,2Z"></path></g></g><path class="cls-1" d="M385.5,165.4s-.9-.5-2-.4c-1.1.1-1.9.5-2.2.4v.5c0,0,2.7-1,4.2-.5Z"></path><path class="cls-1" d="M400.9,176.1s0,0,0,0c-.1-.1,0-.3.1-.5,1.9-1.4,3-2,3.9-2,.4,0,.8.1,1,.5,0,.1,0,.3-.2.5-.2.1-.4.1-.5,0-.1-.2-.3-.3-.6-.3-.6,0-1.6.6-3.2,1.8-.2.1-.3.1-.5,0Z"></path><path class="cls-4" d="M372.2,178.2c-1.3,6.4,4.7,8.1,13.2,6.4,4.8-.9,9.3-3.3,13.1-6.4.4,1.3,1.8,3.7,5.8.3,4.3-3.7,4.4-8.2.4-6.8-.1,0-.3,0-.4.2-1.2.7-2.3,1.5-3.3,2.3-.3.2-.6.5-.9.7-.6.3-1.3.3-1.7,0,.6-.6,1.2-1.3,1.8-1.9.8-.9,1.6-1.8,2.3-2.7-1.5-.8-2.6-2-3.3-3.4-1-1.8-1.3-4-1.4-6.1,0,0-.1,0-.2,0-1.3,5.2,3.4,10.3-5.3,16.6-11.9,8.7-16.8,3.1-19.9,1Z"></path><path class="cls-1" d="M401.6,175.3s0,0,0,0c0,0,0-.2,0-.3.1,0,3.3-2.4,4.6-1.4,0,0,0,.2,0,.3-.1,0-.3.1-.4,0-1-.7-3.9,1.3-3.9,1.4,0,0-.2,0-.3,0Z"></path><path class="cls-1" d="M401.6,177.9c0,0,0,0,0-.1,0-.1.1-.2.3-.3,1.1-.3,2.2-1.4,2.8-2.4.3-.6.4-1.1.1-1.3,0,0,0-.2,0-.3.1-.1.3-.1.4,0,.4.2.4.9,0,1.7-.6,1.1-1.9,2.5-3.2,2.8,0,0-.1,0-.2,0Z"></path><path class="cls-1" d="M392.4,156.3c0,0,0,0,0-.1.1-1.9,1.3-3.1,1.4-3.1.1-.1.3-.1.4,0,0,0,0,.2,0,.3,0,0-1.1,1.1-1.2,2.8,0,.1-.1.2-.3.3,0,0-.1,0-.2,0Z"></path><path class="cls-1" d="M374.8,184.6c-.5-.2-.9-.4-1.2-.7-1.6-1.2-2.2-3.1-1.7-5.6.2-.9.5-1.9,1-3,1.2-2.8,3.2-5.7,6-8.7,3.2-3.5,7-6.6,11.3-9.2l2.3-1.4c.2-.1.4,0,.3.2,0,.1-1.2,3.5,4.7,4.3h.2s0,0,0,0c0,0,.1,0,.1.1.1,2.5.6,4.5,1.4,6.1.8,1.4,1.9,2.6,3.3,3.4,0,0,0,.1,0,.2-.7,1-1.6,2-2.3,2.8l-1.6,1.8c.3.1.8,0,1.3-.1.3-.1.5-.3.8-.6h0c1-.9,2.2-1.7,3.3-2.4.2,0,.3-.1.5-.2,1.5-.5,2.6-.3,3,.5.7,1.3-.2,4-3.2,6.6-1.4,1.2-2.7,1.9-3.8,1.8-1.3,0-2-1.1-2.3-1.9-4,3.2-8.5,5.4-12.9,6.3-4.5.9-8.2.8-10.6-.2ZM392.3,156.6l-1.8,1.1c-4.3,2.6-8,5.7-11.2,9.1-2.7,2.9-4.6,5.8-5.9,8.5h0c-.5,1-.8,2-1,2.9-.5,2.4,0,4.2,1.6,5.3,2.1,1.6,6.2,1.9,11.4.9,4.4-.9,8.9-3.1,12.9-6.3,0,0,.2,0,.2,0,0,0,.1,0,.2,0,.2.7.8,1.9,2.1,1.9.9,0,2-.5,3.3-1.7,2.7-2.3,3.7-4.9,3-6.1-.4-.7-1.3-.8-2.5-.4-.1,0-.3,0-.4.2-1.1.7-2.2,1.4-3.2,2.3h0c-.3.3-.6.5-.9.7-.7.4-1.5.4-2,0,0,0,0-.2,0-.3l1.8-1.9c.8-.9,1.5-1.7,2.1-2.5-1.4-.8-2.5-2-3.2-3.4-.8-1.6-1.3-3.6-1.4-6.1,0,0,0,0,0,0-5-.6-5.2-3.2-5-4.3Z"></path></g><path class="cls-1" d="M327.5,229.4l-3.3-1.5c-.1,0-.1-.2,0-.3s.3-.2.4-.1l3.3,1.5c.1,0,.1.2,0,.3s-.3.2-.4.1Z"></path><path class="cls-1" d="M322.3,235.1l-2.5-1.1h0c0,0,.2-.1.3-.1,0,0,0,0,0,0h.1c0,0,1,.6,1,.6l1,.6Z"></path><g><path class="cls-1" d="M341.1,239.1l-2.7,3.1-.7-.3c1-.8,1.9-1.5,2.5-2,.6-.5.9-.7.9-.7Z"></path><path class="cls-1" d="M341.3,238.9h0c0,0-.2,0-.3,0,0,0,0,0,0,0-.2.2-1.6,1.4-3.4,2.8l.4.2c.6-.5,1.1-.9,1.6-1.3l-1.2,1.4.4.2,2.7-3.1c0,0,0-.2,0-.3Z"></path></g><path class="cls-1" d="M347.2,232.2s0,0-.1,0c-1.9-1.5-1.6-4,.9-7.7,1.4-2.1,1.9-4.2,1.2-5.2-.4-.6-1.1-.8-2.1-.6-2.5.4-7.5,6.5-8.5,7.8-.9-.6-4.5-2.9-7.5-3.4-.9-.2-1.6-.1-2.2,0-2,.7-2.8,2.1-3.5,3.1-.4.6-.7,1.1-1.2,1.4-.2.1-.4.3-.6.4-1.4.8-3.3,1.9-3.4,4v.2c0,1,0,1.5-.3,1.9l.4.2c0,0,0-.1.1-.2.2-.4.3-1,.3-1.9v-.2c.1-1.8,1.7-2.7,3.1-3.5.2-.1.3-.2.5-.3,0,0,.1,0,.2,0,.1,0,.2-.2.3-.2.4-.4.7-.9,1.1-1.4.6-1,1.3-2.2,3.1-2.8.4-.2,1-.2,1.7-.1,0,0,.2,0,.2,0,1,.2,2,.5,3,1,2.4,1,4.5,2.5,4.5,2.5,0,0,.1,0,.2,0,0,0,.1,0,.2-.1,1.6-2,6.3-7.4,8.3-7.8.8-.1,1.3,0,1.7.5.6.9.2,2.8-1.1,4.8-2.6,3.9-2.9,6.6-.9,8.2l-8.4,9.7.4.2,8.5-9.9c0,0,0-.2,0-.3Z"></path></g><path class="cls-1" d="M384.7,261.7c-1.7,0-3.4-.3-4.8-.9l-75.7-33.4c-2.7-1.2-4.3-3.4-4.6-6.1,0,0,0-.1,0-.2,0,0,0-.2,0-.2-.2-2.8,1.1-6,3.5-8.8l65.9-76.1c5.1-5.9,13.8-8.6,19.5-6.1l75.7,33.4c2.4,1,3.9,2.9,4.5,5.2.7,3.2-.5,6.9-3.4,10.1l-65.9,76.1c-.4.4-.8.8-1.2,1.3-.1.1-.3.2-.4.4l-.4.3c-1.4,1.2-3,2.2-4.6,3.1-2.7,1.3-5.5,2-8.1,2ZM383.8,129.6c-4.9,0-10.6,2.6-14.3,6.8l-65.9,76.1c-2.3,2.7-3.5,5.7-3.4,8.4,0,0,0,.1,0,.2,0,0,0,.1,0,.2.3,2.6,1.8,4.6,4.3,5.7l75.7,33.4c3.4,1.5,8,1.1,12.4-1.1,1.6-.8,3.1-1.8,4.5-3l.3-.3c.1-.1.3-.2.4-.4.4-.4.8-.8,1.2-1.2l65.9-76.1h0c2.7-3.1,3.9-6.6,3.2-9.6-.5-2.2-1.9-3.8-4.1-4.8l-75.7-33.4c-1.4-.6-2.9-.9-4.5-.9Z"></path></g><g id="hand"><g><g><path class="cls-11" d="M110.8,396l-64.7-110.1c11.4-3.8,22.3-7.5,32.3-10.8,2.5-.8,4.9-1.6,7.3-2.3,10.9-3.6,20.8-6.7,29-9.2,2.3-.7,4.6-1.3,6.7-2,6.8-2,12.1-3.4,15.7-4.1.9-.2,1.6-.3,2.2-.4,27-4,26.8,14.8,26.8,14.8,24,2.5,22.1,14.3,22.1,14.3,30.5,5.3,22.5,20.4,22.5,20.4,0,0,25-9.5,44-13.3,19-3.7,27.8,5.7,13.9,18.6-13.9,12.9-92.4,61.4-92.4,61.4,41.8,14.6,30,34.9,12.1,35.8-17.9.9-77.3-13.2-77.3-13.2Z"></path><g class="cls-13"><path class="cls-2" d="M207.1,287.4c1.8,12.8-11.6,24.4-10.8,24.1.8-.3,26.2-9.1,26.2-9.1l-3.2-13.9-12.2-1.1Z"></path><path class="cls-2" d="M181.4,271.6c1.7,10-10.5,15.5-10.5,15.5l24.3-1.8-1-8.2-12.8-5.5Z"></path><path class="cls-2" d="M156.6,253.5c4.2,7.5,4.2,14-6,16.7-10.2,2.7,0,0,0,0l24,3.2.6-13.5-18.7-6.5Z"></path><path class="cls-2" d="M275.1,291.8c-3.4,13.2-35.7,32.2-60.3,48.5-24.6,16.3-41.7,28.2-43.7,29.2-2.1,1.1,4.9,3.9,4.9,3.9l14.3.5,89-38.8,17.4-32.2-21.5-11.1Z"></path><path class="cls-2" d="M177.7,408.7c-33.1-5.4-48.8-22-65.1-44.8-16.3-22.7-38.3-76.9-29-100.4,9.3-23.5-22.7-14.7-22.7-14.7l-27.7,38.5,10,53.8,49.5,61.2,61,27,24-20.6"></path></g></g><g><path class="cls-1" d="M186.3,409.6c-19.6,0-75-13.1-75.6-13.3,0,0-.1,0-.2-.1l-64.7-110.1c0,0,0-.2,0-.3,0,0,.1-.2.2-.2,10.7-3.6,22-7.4,32.3-10.8,1.8-.6,3.6-1.2,5.3-1.7l1.9-.6c11.4-3.7,21.2-6.8,29-9.2,2.3-.7,4.6-1.4,6.7-2,6.8-2,12.1-3.4,15.7-4.1.7-.2,1.6-.3,2.3-.4,9.8-1.5,17.1-.1,21.9,4,4.7,4,5.2,9.6,5.3,10.9,12.4,1.3,17.7,5.2,20,8.2,2.1,2.7,2.1,5.3,2.1,6.1,12.1,2.1,19.6,6.1,22.3,11.7,1.8,3.7.9,7.1.4,8.5,4.1-1.5,26.3-9.7,43.4-13,10.1-2,17.9-.3,20.3,4.3,2,3.9-.3,9.3-6.2,14.8-13.2,12.2-85,56.8-91.9,61.1,27,9.6,28.5,20.4,27.9,24.6-.9,6.3-7.8,11.2-16.5,11.6-.6,0-1.2,0-1.8,0ZM111,395.7c3.1.7,59.9,14.1,77.1,13.2,8.4-.4,15.1-5.1,15.9-11.1.6-4.1-1-14.7-28.1-24.2-.1,0-.2-.1-.2-.3,0-.1,0-.2.1-.3.8-.5,78.7-48.7,92.4-61.4,5.7-5.3,7.9-10.4,6-14-2.2-4.4-9.9-5.9-19.7-4-18.7,3.7-43.7,13.2-43.9,13.3-.1,0-.2,0-.3,0,0,0,0-.2,0-.3,0,0,2.1-4.1,0-8.6-2.6-5.4-10.3-9.3-22.1-11.4-.2,0-.3-.2-.2-.3,0,0,.4-2.9-1.9-6-2.3-2.9-7.5-6.7-19.8-8-.2,0-.3-.1-.3-.3,0,0,0-6.3-5.1-10.7-4.6-4-11.8-5.3-21.4-3.8-.7,0-1.5.3-2.2.4-3.6.7-8.8,2.1-15.7,4.1-2.1.6-4.3,1.3-6.7,2-7.8,2.3-17.6,5.4-29,9.2l-1.9.6c-1.7.6-3.5,1.1-5.3,1.7-10.2,3.3-21.4,7.1-32,10.6l64.5,109.6Z"></path><path class="cls-1" d="M185.1,315c-.1,0-.2,0-.3-.2,0-.2,0-.3.2-.4.1,0,13.6-4.1,25.4-8,.2,0,.3,0,.4.2,0,.2,0,.3-.2.4-11.8,3.9-25.3,8-25.4,8,0,0,0,0,0,0Z"></path><path class="cls-1" d="M160.1,288c-.2,0-.3-.1-.3-.3,0-.2.1-.3.3-.3.2,0,17.3-1.6,28-1.4.2,0,.3.1.3.3,0,.2-.1.3-.3.3h0c-10.7-.2-27.8,1.4-28,1.4,0,0,0,0,0,0Z"></path><path class="cls-1" d="M166.1,272.3s0,0,0,0c-12.4-2.2-27.6-2.2-27.8-2.2-.2,0-.3-.1-.3-.3,0-.2.1-.3.3-.3h0c.2,0,15.4,0,27.9,2.2.2,0,.3.2.2.3,0,.1-.2.2-.3.2Z"></path></g></g><path class="cls-2" d="M120.1,376.9c-4.4-7.2-8.9-14.4-13-21.7-3.8-6.8-7.2-14-8.9-21.6-1-4.1-1.4-8.3-1.3-12.6,0-1.2-1.8-1.4-1.9-.2-.6,16.2,7.5,30.7,15.6,44.1,2.6,4.3,5.2,8.5,7.7,12.8.6,1,2.4.3,1.7-.8Z"></path><path class="cls-2" d="M96.1,314.2s0,0,.2.1c.1,0,.2.1.4.2.1,0,.3,0,.4,0,.2,0,.4,0,.6,0,.3-.1.6-.4.7-.7,0-.1,0-.3.1-.4,0,0,0-.2,0-.2,0-.2,0-.5,0-.7,0-.3-.2-.6-.4-.8-.1-.2-.3-.3-.5-.4-.2-.1-.5-.2-.8-.3-.4,0-.7,0-1,.3-.3.2-.4.6-.5.9,0,0,0,.1,0,.2,0,0,0,0,0,0,0,.2,0,.4,0,.6,0,.2.1.4.2.6,0,.1.1.2.2.3,0,.1.2.2.3.3Z"></path></g></svg>